<svg width="25" height="25" viewBox="0 0 25 25" fill="none" xmlns="http://www.w3.org/2000/svg">
<path d="M7.29183 21.875H17.7084C20.1636 21.875 21.3912 21.875 22.154 21.1123C22.9167 20.3495 22.9167 19.1219 22.9167 16.6667C22.9167 14.2115 22.9167 12.9839 22.154 12.2211C21.3912 11.4584 20.1636 11.4584 17.7084 11.4584H7.29183C4.83664 11.4584 3.60905 11.4584 2.84631 12.2211C2.08357 12.9838 2.08355 14.2114 2.0835 16.6666C2.08344 19.1219 2.08342 20.3495 2.84617 21.1122C3.60891 21.875 4.83656 21.875 7.29183 21.875Z" stroke="#9A8352" stroke-width="3" stroke-linecap="round" stroke-linejoin="round"/>
<path d="M4.1665 11.4583C4.16656 9.99972 4.16659 9.27044 4.45049 8.71334C4.70015 8.22345 5.09847 7.82515 5.58838 7.57551C6.14547 7.29163 6.87476 7.29163 8.33333 7.29163H16.6665C18.1249 7.29163 18.8542 7.29163 19.4113 7.57546C19.9013 7.82514 20.2996 8.22352 20.5493 8.71352C20.8332 9.27058 20.8332 9.99982 20.8332 11.4583" stroke="#9A8352" stroke-width="3" stroke-linecap="round" stroke-linejoin="round"/>
<path d="M6.25 7.29167C6.25004 5.83312 6.25006 5.10384 6.53395 4.54677C6.78361 4.05684 7.18195 3.65852 7.67189 3.40888C8.22897 3.125 8.95824 3.125 10.4168 3.125H14.5833C16.0418 3.125 16.771 3.125 17.3281 3.40883C17.8181 3.65851 18.2165 4.0569 18.4661 4.5469C18.75 5.10396 18.75 5.8332 18.75 7.29167" stroke="#9A8352" stroke-width="3" stroke-linecap="round" stroke-linejoin="round"/>
<path d="M16.6668 15.625L16.3543 16.0417C15.7409 16.8595 15.4342 17.2684 14.9943 17.4884C14.5544 17.7083 14.0433 17.7083 13.021 17.7083H11.9793C10.957 17.7083 10.4459 17.7083 10.006 17.4884C9.56608 17.2684 9.25938 16.8595 8.646 16.0417L8.3335 15.625" stroke="#9A8352" stroke-width="3" stroke-linecap="round" stroke-linejoin="round"/>
</svg>
