<svg width="92" height="92" viewBox="0 0 92 92" fill="none" xmlns="http://www.w3.org/2000/svg">
<g clip-path="url(#clip0_56_172)">
<path d="M45.2146 41.9702C36.5886 39.7282 33.8146 37.4102 33.8146 33.8002C33.8146 29.6582 37.6526 26.7702 44.0746 26.7702C50.8386 26.7702 53.3466 30.0002 53.5746 34.7502H61.9726C61.7066 28.2142 57.7166 22.2102 49.7746 20.2722V11.9502H38.3746V20.1582C31.0026 21.7542 25.0746 26.5422 25.0746 33.8762C25.0746 42.6542 32.3326 47.0242 42.9346 49.5702C52.4346 51.8502 54.3346 55.1942 54.3346 58.7282C54.3346 61.3502 52.4726 65.5302 44.0746 65.5302C36.2466 65.5302 33.1686 62.0342 32.7506 57.5502H24.3906C24.8466 65.8722 31.0786 70.5462 38.3746 72.1042V80.3502H49.7746V72.1802C57.1846 70.7742 63.0746 66.4802 63.0746 58.6902C63.0746 47.8982 53.8406 44.2122 45.2146 41.9702Z" fill="#B89130"/>
</g>
<defs>
<clipPath id="clip0_56_172">
<rect width="91.2" height="91.2" fill="white" transform="translate(0.375 0.549805)"/>
</clipPath>
</defs>
</svg>
