<svg width="25" height="25" viewBox="0 0 25 25" fill="none" xmlns="http://www.w3.org/2000/svg">
<path d="M22.9168 12.5H16.6668L14.5835 15.625H10.4168L8.3335 12.5H2.0835" stroke="#9A8352" stroke-width="3" stroke-linecap="round" stroke-linejoin="round"/>
<path d="M5.67725 5.32288L2.0835 12.5V18.75C2.0835 19.3025 2.30299 19.8324 2.69369 20.2231C3.08439 20.6138 3.6143 20.8333 4.16683 20.8333H20.8335C21.386 20.8333 21.9159 20.6138 22.3066 20.2231C22.6973 19.8324 22.9168 19.3025 22.9168 18.75V12.5L19.3231 5.32288C19.1506 4.97578 18.8847 4.68368 18.5553 4.47942C18.2259 4.27516 17.8461 4.16683 17.4585 4.16663H7.54183C7.15424 4.16683 6.7744 4.27516 6.445 4.47942C6.11561 4.68368 5.84972 4.97578 5.67725 5.32288Z" stroke="#9A8352" stroke-width="3" stroke-linecap="round" stroke-linejoin="round"/>
</svg>
