<svg width="25" height="25" viewBox="0 0 25 25" fill="none" xmlns="http://www.w3.org/2000/svg">
<path d="M2.0835 18.75C2.0835 17.1455 2.0835 16.3431 2.44467 15.7537C2.64677 15.4239 2.92405 15.1466 3.25384 14.9445C3.84323 14.5834 4.64554 14.5834 6.25016 14.5834C7.85479 14.5834 8.6571 14.5834 9.24648 14.9445C9.57628 15.1466 9.85356 15.4239 10.0557 15.7537C10.4168 16.3431 10.4168 17.1455 10.4168 18.75C10.4168 20.3546 10.4168 21.157 10.0557 21.7464C9.85356 22.0762 9.57628 22.3535 9.24648 22.5556C8.6571 22.9167 7.85479 22.9167 6.25016 22.9167C4.64554 22.9167 3.84323 22.9167 3.25384 22.5556C2.92405 22.3535 2.64677 22.0762 2.44467 21.7464C2.0835 21.157 2.0835 20.3546 2.0835 18.75Z" stroke="#9A8352" stroke-width="3"/>
<path d="M14.5835 18.75C14.5835 17.1455 14.5835 16.3431 14.9446 15.7537C15.1467 15.4239 15.424 15.1466 15.7538 14.9445C16.3432 14.5834 17.1456 14.5834 18.7502 14.5834C20.3547 14.5834 21.1571 14.5834 21.7465 14.9445C22.0763 15.1466 22.3536 15.4239 22.5557 15.7537C22.9168 16.3431 22.9168 17.1455 22.9168 18.75C22.9168 20.3546 22.9168 21.157 22.5557 21.7464C22.3536 22.0762 22.0763 22.3535 21.7465 22.5556C21.1571 22.9167 20.3547 22.9167 18.7502 22.9167C17.1456 22.9167 16.3432 22.9167 15.7538 22.5556C15.424 22.3535 15.1467 22.0762 14.9446 21.7464C14.5835 21.157 14.5835 20.3546 14.5835 18.75Z" stroke="#9A8352" stroke-width="3"/>
<path d="M2.0835 6.25004C2.0835 4.64542 2.0835 3.8431 2.44467 3.25372C2.64677 2.92393 2.92405 2.64664 3.25384 2.44455C3.84323 2.08337 4.64554 2.08337 6.25016 2.08337C7.85479 2.08337 8.6571 2.08337 9.24648 2.44455C9.57628 2.64664 9.85356 2.92393 10.0557 3.25372C10.4168 3.8431 10.4168 4.64542 10.4168 6.25004C10.4168 7.85467 10.4168 8.65698 10.0557 9.24636C9.85356 9.57615 9.57628 9.85344 9.24648 10.0555C8.6571 10.4167 7.85479 10.4167 6.25016 10.4167C4.64554 10.4167 3.84323 10.4167 3.25384 10.0555C2.92405 9.85344 2.64677 9.57615 2.44467 9.24636C2.0835 8.65698 2.0835 7.85467 2.0835 6.25004Z" stroke="#9A8352" stroke-width="3"/>
<path d="M14.5835 6.25004C14.5835 4.64542 14.5835 3.8431 14.9446 3.25372C15.1467 2.92393 15.424 2.64664 15.7538 2.44455C16.3432 2.08337 17.1456 2.08337 18.7502 2.08337C20.3547 2.08337 21.1571 2.08337 21.7465 2.44455C22.0763 2.64664 22.3536 2.92393 22.5557 3.25372C22.9168 3.8431 22.9168 4.64542 22.9168 6.25004C22.9168 7.85467 22.9168 8.65698 22.5557 9.24636C22.3536 9.57615 22.0763 9.85344 21.7465 10.0555C21.1571 10.4167 20.3547 10.4167 18.7502 10.4167C17.1456 10.4167 16.3432 10.4167 15.7538 10.0555C15.424 9.85344 15.1467 9.57615 14.9446 9.24636C14.5835 8.65698 14.5835 7.85467 14.5835 6.25004Z" stroke="#9A8352" stroke-width="3"/>
</svg>
