<svg width="26" height="27" viewBox="0 0 26 27" fill="none" xmlns="http://www.w3.org/2000/svg">
<path d="M20.8623 6.50391L20.2039 17.1556C20.0356 19.877 19.9515 21.2377 19.2694 22.2161C18.9321 22.6997 18.4979 23.1079 17.9943 23.4147C16.9758 24.0352 15.6125 24.0352 12.8858 24.0352C10.1556 24.0352 8.7905 24.0352 7.7713 23.4135C7.2674 23.1062 6.83305 22.6973 6.4959 22.2128C5.81399 21.2329 5.73172 19.8703 5.5672 17.1451L4.9248 6.50391" stroke="#D80C0C" stroke-width="1.53" stroke-linecap="round"/>
<path d="M3.33105 6.50366H22.4561M17.2027 6.50366L16.4775 5.00738C15.9956 4.01344 15.7547 3.51646 15.3391 3.20652C15.247 3.13777 15.1493 3.07661 15.0472 3.02366C14.5871 2.78491 14.0348 2.78491 12.9302 2.78491C11.7979 2.78491 11.2318 2.78491 10.764 3.03366C10.6603 3.0888 10.5613 3.15243 10.4682 3.22391C10.0478 3.54641 9.81297 4.06156 9.34333 5.09188L8.69978 6.50366" stroke="#D80C0C" stroke-width="1.53" stroke-linecap="round"/>
<path d="M10.2373 18.1912V11.8162" stroke="#D80C0C" stroke-width="1.53" stroke-linecap="round"/>
<path d="M15.5493 18.1912V11.8162" stroke="#D80C0C" stroke-width="1.53" stroke-linecap="round"/>
</svg>
