<svg width="87" height="87" viewBox="0 0 87 87" fill="none" xmlns="http://www.w3.org/2000/svg">
<path d="M14.8252 71.9497V39.8872C12.8658 39.8872 11.1885 39.1895 9.79316 37.7942C8.39785 36.3989 7.7002 34.7216 7.7002 32.7622V25.6372C7.7002 23.6778 8.39785 22.0005 9.79316 20.6052C11.1885 19.2099 12.8658 18.5122 14.8252 18.5122H26.2252C25.9283 17.9778 25.7354 17.4138 25.6463 16.82C25.5572 16.2263 25.5127 15.6028 25.5127 14.9497C25.5127 11.981 26.5518 9.45752 28.6299 7.37939C30.708 5.30127 33.2314 4.26221 36.2002 4.26221C37.5658 4.26221 38.8424 4.51455 40.0299 5.01924C41.2174 5.52393 42.3158 6.22158 43.3252 7.11221C44.3346 6.16221 45.433 5.44971 46.6205 4.97471C47.808 4.49971 49.0846 4.26221 50.4502 4.26221C53.4189 4.26221 55.9424 5.30127 58.0205 7.37939C60.0986 9.45752 61.1377 11.981 61.1377 14.9497C61.1377 15.6028 61.0783 16.2114 60.9596 16.7755C60.8408 17.3396 60.6627 17.9185 60.4252 18.5122H71.8252C73.7846 18.5122 75.4619 19.2099 76.8572 20.6052C78.2525 22.0005 78.9502 23.6778 78.9502 25.6372V32.7622C78.9502 34.7216 78.2525 36.3989 76.8572 37.7942C75.4619 39.1895 73.7846 39.8872 71.8252 39.8872V71.9497C71.8252 73.9091 71.1275 75.5864 69.7322 76.9817C68.3369 78.377 66.6596 79.0747 64.7002 79.0747H21.9502C19.9908 79.0747 18.3135 78.377 16.9182 76.9817C15.5229 75.5864 14.8252 73.9091 14.8252 71.9497ZM50.4502 11.3872C49.4408 11.3872 48.5947 11.7286 47.9119 12.4114C47.2291 13.0942 46.8877 13.9403 46.8877 14.9497C46.8877 15.9591 47.2291 16.8052 47.9119 17.488C48.5947 18.1708 49.4408 18.5122 50.4502 18.5122C51.4596 18.5122 52.3057 18.1708 52.9885 17.488C53.6713 16.8052 54.0127 15.9591 54.0127 14.9497C54.0127 13.9403 53.6713 13.0942 52.9885 12.4114C52.3057 11.7286 51.4596 11.3872 50.4502 11.3872ZM32.6377 14.9497C32.6377 15.9591 32.9791 16.8052 33.6619 17.488C34.3447 18.1708 35.1908 18.5122 36.2002 18.5122C37.2096 18.5122 38.0557 18.1708 38.7385 17.488C39.4213 16.8052 39.7627 15.9591 39.7627 14.9497C39.7627 13.9403 39.4213 13.0942 38.7385 12.4114C38.0557 11.7286 37.2096 11.3872 36.2002 11.3872C35.1908 11.3872 34.3447 11.7286 33.6619 12.4114C32.9791 13.0942 32.6377 13.9403 32.6377 14.9497ZM14.8252 25.6372V32.7622H39.7627V25.6372H14.8252ZM39.7627 71.9497V39.8872H21.9502V71.9497H39.7627ZM46.8877 71.9497H64.7002V39.8872H46.8877V71.9497ZM71.8252 32.7622V25.6372H46.8877V32.7622H71.8252Z" fill="#B89130"/>
</svg>
