<svg width="73" height="33" viewBox="0 0 73 33" fill="none" xmlns="http://www.w3.org/2000/svg">
<path d="M38.8829 0.14V1.04C37.9229 1.07 37.2029 1.19 36.7229 1.4C36.2429 1.58 35.9129 1.94 35.7329 2.48C35.5829 2.99 35.5079 3.8 35.5079 4.91V27.23C35.5079 28.31 35.5829 29.12 35.7329 29.66C35.9129 30.2 36.2429 30.56 36.7229 30.74C37.2029 30.92 37.9229 31.04 38.8829 31.1V32C38.0429 31.94 36.9779 31.91 35.6879 31.91C34.4279 31.88 33.1379 31.865 31.8179 31.865C30.3779 31.865 29.0279 31.88 27.7679 31.91C26.5079 31.91 25.4879 31.94 24.7079 32V31.1C25.7279 31.04 26.4929 30.92 27.0029 30.74C27.5429 30.56 27.9029 30.2 28.0829 29.66C28.2629 29.12 28.3529 28.31 28.3529 27.23V2.885H28.6679L17.5079 32.045H16.7879L4.63793 3.065V24.62C4.63793 26.27 4.72793 27.545 4.90793 28.445C5.08793 29.315 5.47793 29.945 6.07793 30.335C6.70793 30.695 7.68293 30.95 9.00293 31.1V32C8.43293 31.94 7.68293 31.91 6.75293 31.91C5.82293 31.88 4.95293 31.865 4.14293 31.865C3.45293 31.865 2.74793 31.88 2.02793 31.91C1.30793 31.91 0.707929 31.94 0.227929 32V31.1C1.18793 30.95 1.90793 30.695 2.38793 30.335C2.86793 29.975 3.18293 29.39 3.33293 28.58C3.51293 27.74 3.60293 26.6 3.60293 25.16V4.91C3.60293 3.8 3.51293 2.99 3.33293 2.48C3.18293 1.94 2.85293 1.58 2.34293 1.4C1.86293 1.19 1.15793 1.07 0.227929 1.04V0.14C0.707929 0.169999 1.30793 0.199999 2.02793 0.229999C2.74793 0.259998 3.45293 0.274998 4.14293 0.274998C5.43293 0.274998 6.69293 0.259998 7.92293 0.229999C9.18293 0.199999 10.2929 0.169999 11.2529 0.14L20.7029 22.955L19.5779 23.99L28.6229 0.274998C29.1329 0.274998 29.6579 0.274998 30.1979 0.274998C30.7379 0.274998 31.2779 0.274998 31.8179 0.274998C33.1379 0.274998 34.4279 0.259998 35.6879 0.229999C36.9779 0.199999 38.0429 0.169999 38.8829 0.14ZM45.037 0.14C45.817 0.169999 46.837 0.199999 48.097 0.229999C49.357 0.259998 50.617 0.274998 51.877 0.274998C53.317 0.274998 54.712 0.259998 56.062 0.229999C57.412 0.199999 58.372 0.184999 58.942 0.184999C62.662 0.184999 65.437 0.844999 67.267 2.165C69.127 3.485 70.057 5.18 70.057 7.25C70.057 8.3 69.742 9.365 69.112 10.445C68.482 11.525 67.507 12.485 66.187 13.325C64.867 14.165 63.157 14.78 61.057 15.17V15.26C63.877 15.47 66.112 15.98 67.762 16.79C69.412 17.6 70.597 18.575 71.317 19.715C72.037 20.855 72.397 22.04 72.397 23.27C72.397 25.16 71.902 26.75 70.912 28.04C69.922 29.33 68.497 30.32 66.637 31.01C64.777 31.67 62.557 32 59.977 32C59.257 32 58.222 31.985 56.872 31.955C55.522 31.895 53.887 31.865 51.967 31.865C50.647 31.865 49.357 31.88 48.097 31.91C46.837 31.91 45.817 31.94 45.037 32V31.1C45.997 31.04 46.717 30.92 47.197 30.74C47.677 30.56 47.992 30.2 48.142 29.66C48.322 29.12 48.412 28.31 48.412 27.23V4.91C48.412 3.8 48.322 2.99 48.142 2.48C47.992 1.94 47.662 1.58 47.152 1.4C46.672 1.19 45.967 1.07 45.037 1.04V0.14ZM58.357 1.04C57.187 1.04 56.422 1.295 56.062 1.805C55.732 2.315 55.567 3.35 55.567 4.91V27.23C55.567 28.28 55.642 29.075 55.792 29.615C55.972 30.155 56.272 30.515 56.692 30.695C57.142 30.875 57.802 30.965 58.672 30.965C60.832 30.965 62.407 30.29 63.397 28.94C64.417 27.56 64.927 25.61 64.927 23.09C64.927 20.78 64.342 18.995 63.172 17.735C62.032 16.475 60.127 15.845 57.457 15.845H53.632C53.632 15.845 53.632 15.725 53.632 15.485C53.632 15.215 53.632 15.08 53.632 15.08H57.502C58.912 15.08 59.992 14.75 60.742 14.09C61.492 13.4 62.017 12.5 62.317 11.39C62.617 10.25 62.767 9.035 62.767 7.745C62.767 5.525 62.422 3.86 61.732 2.75C61.042 1.61 59.917 1.04 58.357 1.04Z" fill="white"/>
</svg>
