<svg width="25" height="25" viewBox="0 0 25 25" fill="none" xmlns="http://www.w3.org/2000/svg">
<path d="M2.0835 13.9882V8.33337H22.9168V13.9882C22.9168 18.1971 22.9168 20.3016 21.5609 21.6091C20.2048 22.9167 18.0225 22.9167 13.6576 22.9167H11.3428C6.9779 22.9167 4.79548 22.9167 3.43949 21.6091C2.0835 20.3016 2.0835 18.1971 2.0835 13.9882Z" stroke="#9A8352" stroke-width="3" stroke-linecap="round" stroke-linejoin="round"/>
<path d="M2.0835 8.33337L3.0851 5.92953C3.86189 4.06522 4.2503 3.13306 5.03756 2.60822C5.82482 2.08337 6.83466 2.08337 8.85433 2.08337H16.146C18.1657 2.08337 19.1755 2.08337 19.9628 2.60822C20.7501 3.13306 21.1384 4.06522 21.9153 5.92953L22.9168 8.33337" stroke="#9A8352" stroke-width="3" stroke-linecap="round"/>
<path d="M12.5 8.33337V2.08337" stroke="#9A8352" stroke-width="3" stroke-linecap="round"/>
<path d="M10.4165 12.5H14.5832" stroke="#9A8352" stroke-width="3" stroke-linecap="round"/>
</svg>
