<svg width="27" height="27" viewBox="0 0 27 27" fill="none" xmlns="http://www.w3.org/2000/svg">
<path d="M18.2351 5.55282L19.287 4.50095C20.1585 3.62957 21.5713 3.62957 22.4426 4.50095C23.314 5.37235 23.314 6.78515 22.4426 7.65655L21.3908 8.70841M18.2351 5.55282L11.1596 12.6283C10.6204 13.1677 10.2379 13.8432 10.0529 14.583L9.28369 17.6599L12.3606 16.8907C13.1004 16.7058 13.7759 16.3232 14.3153 15.784L21.3908 8.70841M18.2351 5.55282L21.3908 8.70841" stroke="#9A8352" stroke-width="1.53" stroke-linejoin="round"/>
<path d="M20.9706 15.0037C20.9706 18.4966 20.9706 20.2431 20.006 21.4186C19.8294 21.6338 19.6321 21.8311 19.4168 22.0077C18.2414 22.9724 16.4948 22.9724 13.0018 22.9724H12.4707C8.46376 22.9724 6.46031 22.9724 5.21552 21.7276C3.97073 20.4829 3.9707 18.4793 3.9707 14.4724V13.9412C3.9707 10.4482 3.9707 8.70175 4.93539 7.52625C5.11201 7.31106 5.30935 7.11372 5.52455 6.9371C6.70004 5.97241 8.44651 5.97241 11.9395 5.97241" stroke="#9A8352" stroke-width="1.53" stroke-linecap="round" stroke-linejoin="round"/>
</svg>
