<svg width="25" height="25" viewBox="0 0 25 25" fill="none" xmlns="http://www.w3.org/2000/svg">
<path d="M3.09033 10.9335V16.1437C3.09033 19.091 3.09033 20.5646 4.00562 21.4802C4.92092 22.396 6.39405 22.396 9.34033 22.396H15.5903C18.5366 22.396 20.0097 22.396 20.925 21.4802C21.8403 20.5646 21.8403 19.091 21.8403 16.1437V10.9335" stroke="#9A8352" stroke-width="3" stroke-linecap="round"/>
<path d="M15.5903 17.7013C14.8777 18.3338 13.7432 18.743 12.4653 18.743C11.1874 18.743 10.0529 18.3338 9.34033 17.7013" stroke="#9A8352" stroke-width="3" stroke-linecap="round"/>
<path d="M10.525 8.76931C10.2312 9.83014 9.16295 11.6601 7.13325 11.9253C5.34113 12.1594 3.98189 11.3771 3.6347 11.0501C3.25191 10.7849 2.37949 9.93623 2.16585 9.40581C1.95219 8.87539 2.20145 7.72616 2.37949 7.25762L3.09123 5.19681C3.26498 4.67918 3.67172 3.45491 4.08871 3.04082C4.50571 2.62673 5.34996 2.60871 5.69745 2.60871H12.9948C14.8732 2.63525 18.9803 2.59196 19.7921 2.60872C20.604 2.62547 21.0919 3.30603 21.2343 3.59776C22.4457 6.53194 22.9168 8.21237 22.9168 8.92843C22.7587 9.69231 22.1043 11.1327 19.7921 11.7662C17.389 12.4245 16.0266 11.1439 15.5992 10.6522M9.53685 10.6522C9.87513 11.0678 10.9363 11.9041 12.4745 11.9253C14.0129 11.9465 15.3411 10.8733 15.8129 10.334C15.9464 10.1749 16.2348 9.70284 16.534 8.76931" stroke="#9A8352" stroke-width="3" stroke-linecap="round" stroke-linejoin="round"/>
</svg>
