<svg width="55" height="55" viewBox="0 0 55 55" fill="none" xmlns="http://www.w3.org/2000/svg">
<path d="M18.3333 36.6668H34.9782C45.2623 36.6668 46.8263 30.2062 48.7231 20.7835C49.2704 18.0656 49.544 16.7067 48.8861 15.8014C48.2281 14.896 46.967 14.896 44.4448 14.896H13.75" fill="#9A8352"/>
<path d="M18.3333 36.6668H34.9782C45.2623 36.6668 46.8263 30.2062 48.7231 20.7835C49.2704 18.0656 49.544 16.7067 48.8861 15.8014C48.2281 14.896 46.967 14.896 44.4448 14.896H13.75" stroke="#9A8352" stroke-width="1.5" stroke-linecap="round"/>
<path d="M18.3332 36.6668L12.3261 8.05521C11.816 6.01485 9.98275 4.5835 7.87962 4.5835H5.729" fill="#9A8352"/>
<path d="M18.3332 36.6668L12.3261 8.05521C11.816 6.01485 9.98275 4.5835 7.87962 4.5835H5.729" stroke="#9A8352" stroke-width="1.5" stroke-linecap="round"/>
<path d="M20.35 36.6665H19.4071C16.2828 36.6665 13.75 39.3049 13.75 42.5593C13.75 43.1017 14.1721 43.5415 14.6929 43.5415H40.1042" fill="#9A8352"/>
<path d="M20.35 36.6665H19.4071C16.2828 36.6665 13.75 39.3049 13.75 42.5593C13.75 43.1017 14.1721 43.5415 14.6929 43.5415H40.1042" stroke="#9A8352" stroke-width="1.5" stroke-linecap="round" stroke-linejoin="round"/>
<path d="M24.0625 50.4165C25.961 50.4165 27.5 48.8775 27.5 46.979C27.5 45.0805 25.961 43.5415 24.0625 43.5415C22.164 43.5415 20.625 45.0805 20.625 46.979C20.625 48.8775 22.164 50.4165 24.0625 50.4165Z" fill="#9A8352" stroke="#9A8352" stroke-width="1.5"/>
<path d="M40.104 50.4165C42.0025 50.4165 43.5415 48.8775 43.5415 46.979C43.5415 45.0805 42.0025 43.5415 40.104 43.5415C38.2055 43.5415 36.6665 45.0805 36.6665 46.979C36.6665 48.8775 38.2055 50.4165 40.104 50.4165Z" fill="#9A8352" stroke="#9A8352" stroke-width="1.5"/>
</svg>
