<svg width="406" height="116" viewBox="0 0 406 116" fill="none" xmlns="http://www.w3.org/2000/svg">
<path d="M64.9692 20.06V21.16C63.7958 21.1967 62.8975 21.3433 62.2742 21.6C61.6508 21.82 61.2292 22.26 61.0092 22.92C60.8258 23.5433 60.7342 24.5333 60.7342 25.89V53.17C60.7342 54.49 60.8442 55.48 61.0642 56.14C61.2842 56.8 61.6875 57.24 62.2742 57.46C62.8975 57.68 63.7958 57.8267 64.9692 57.9V59C64.0158 58.9267 62.8058 58.89 61.3392 58.89C59.8725 58.8533 58.3875 58.835 56.8842 58.835C55.2342 58.835 53.6758 58.8533 52.2092 58.89C50.7792 58.89 49.6242 58.9267 48.7442 59V57.9C49.9908 57.8267 50.9258 57.68 51.5492 57.46C52.2092 57.24 52.6492 56.8 52.8692 56.14C53.0892 55.48 53.1992 54.49 53.1992 53.17V23.25L53.5842 23.305L39.9442 59.165H39.0642L24.5442 23.58V50.86C24.5442 52.62 24.6542 53.995 24.8742 54.985C25.0942 55.9383 25.5708 56.635 26.3042 57.075C27.0742 57.4783 28.2292 57.7533 29.7692 57.9V59C29.0725 58.9267 28.1742 58.89 27.0742 58.89C25.9742 58.8533 24.9292 58.835 23.9392 58.835C23.0592 58.835 22.1608 58.8533 21.2442 58.89C20.3642 58.89 19.6308 58.9267 19.0442 59V57.9C20.2542 57.7533 21.1525 57.4783 21.7392 57.075C22.3625 56.6717 22.7658 56.0117 22.9492 55.095C23.1692 54.1783 23.2792 52.9133 23.2792 51.3V25.89C23.2792 24.5333 23.1692 23.5433 22.9492 22.92C22.7658 22.26 22.3625 21.82 21.7392 21.6C21.1525 21.3433 20.2542 21.1967 19.0442 21.16V20.06C19.6308 20.0967 20.3642 20.1333 21.2442 20.17C22.1608 20.2067 23.0592 20.225 23.9392 20.225C25.2958 20.225 26.6158 20.2067 27.8992 20.17C29.1825 20.1333 30.3192 20.0967 31.3092 20.06L43.1342 49.595L41.9242 50.585L53.4192 20.225C53.9692 20.225 54.5375 20.225 55.1242 20.225C55.7475 20.225 56.3342 20.225 56.8842 20.225C58.3875 20.225 59.8725 20.2067 61.3392 20.17C62.8058 20.1333 64.0158 20.0967 64.9692 20.06ZM72.8441 20.06C73.7607 20.0967 74.9341 20.1333 76.3641 20.17C77.7941 20.2067 79.2241 20.225 80.6541 20.225C82.4507 20.225 84.1557 20.2067 85.7691 20.17C87.3824 20.1333 88.5191 20.115 89.1791 20.115C93.5057 20.115 96.7324 20.9217 98.8591 22.535C101.022 24.1483 102.104 26.22 102.104 28.75C102.104 30.0333 101.756 31.3167 101.059 32.6C100.399 33.8833 99.3174 35.0383 97.8141 36.065C96.3474 37.0917 94.4224 37.8617 92.0391 38.375V38.485C95.2657 38.7783 97.8141 39.4383 99.6841 40.465C101.591 41.455 102.947 42.6467 103.754 44.04C104.561 45.3967 104.964 46.8267 104.964 48.33C104.964 50.5667 104.377 52.4917 103.204 54.105C102.067 55.6817 100.417 56.8917 98.2541 57.735C96.0907 58.5783 93.4874 59 90.4441 59C89.6374 59 88.4091 58.9817 86.7591 58.945C85.1091 58.8717 83.1107 58.835 80.7641 58.835C79.2607 58.835 77.7941 58.8533 76.3641 58.89C74.9341 58.89 73.7607 58.9267 72.8441 59V57.9C74.0541 57.8267 74.9524 57.68 75.5391 57.46C76.1624 57.24 76.5657 56.8 76.7491 56.14C76.9691 55.48 77.0791 54.49 77.0791 53.17V25.89C77.0791 24.5333 76.9691 23.5433 76.7491 22.92C76.5657 22.26 76.1624 21.82 75.5391 21.6C74.9524 21.3433 74.0541 21.1967 72.8441 21.16V20.06ZM88.2441 21.16C86.7407 21.16 85.7507 21.4717 85.2741 22.095C84.8341 22.7183 84.6141 23.9833 84.6141 25.89V53.17C84.6141 54.4533 84.7241 55.425 84.9441 56.085C85.1641 56.745 85.5491 57.185 86.0991 57.405C86.6491 57.625 87.4557 57.735 88.5191 57.735C91.5257 57.735 93.6891 56.91 95.0091 55.26C96.3657 53.5733 97.0441 51.19 97.0441 48.11C97.0441 45.2867 96.3107 43.105 94.8441 41.565C93.4141 40.025 91.0307 39.255 87.6941 39.255H82.6891C82.6891 39.255 82.6891 39.1083 82.6891 38.815C82.6891 38.485 82.6891 38.32 82.6891 38.32H87.4191C89.2891 38.32 90.7374 37.9167 91.7641 37.11C92.7907 36.2667 93.4874 35.1667 93.8541 33.81C94.2207 32.4167 94.4041 30.9317 94.4041 29.355C94.4041 26.6417 93.9274 24.6067 92.9741 23.25C92.0207 21.8567 90.4441 21.16 88.2441 21.16ZM129.743 20.06C130.66 20.0967 131.833 20.1333 133.263 20.17C134.693 20.2067 136.123 20.225 137.553 20.225C139.35 20.225 141.055 20.2067 142.668 20.17C144.282 20.1333 145.418 20.115 146.078 20.115C150.992 20.115 154.64 21.1233 157.023 23.14C159.443 25.1567 160.653 27.76 160.653 30.95C160.653 32.27 160.415 33.6633 159.938 35.13C159.462 36.56 158.637 37.8983 157.463 39.145C156.29 40.355 154.677 41.345 152.623 42.115C150.607 42.885 148.022 43.27 144.868 43.27H139.368V42.17H144.318C146.628 42.17 148.388 41.675 149.598 40.685C150.845 39.695 151.67 38.3933 152.073 36.78C152.513 35.1667 152.733 33.425 152.733 31.555C152.733 28.0717 152.165 25.4683 151.028 23.745C149.892 22.0217 147.93 21.16 145.143 21.16C143.64 21.16 142.65 21.4717 142.173 22.095C141.733 22.7183 141.513 23.9833 141.513 25.89V52.95C141.513 54.3433 141.66 55.3883 141.953 56.085C142.247 56.7817 142.815 57.24 143.658 57.46C144.502 57.68 145.712 57.8083 147.288 57.845V59C146.225 58.9267 144.85 58.89 143.163 58.89C141.477 58.8533 139.735 58.835 137.938 58.835C136.398 58.835 134.913 58.8533 133.483 58.89C132.053 58.89 130.807 58.9267 129.743 59V57.9C130.953 57.8267 131.852 57.68 132.438 57.46C133.062 57.24 133.465 56.8 133.648 56.14C133.868 55.48 133.978 54.49 133.978 53.17V25.89C133.978 24.5333 133.868 23.5433 133.648 22.92C133.465 22.26 133.062 21.82 132.438 21.6C131.852 21.3433 130.953 21.1967 129.743 21.16V20.06ZM182.395 19.895L195.76 54.38C196.31 55.7 196.897 56.6167 197.52 57.13C198.18 57.6067 198.785 57.8633 199.335 57.9V59C198.382 58.9267 197.227 58.89 195.87 58.89C194.55 58.8533 193.194 58.835 191.8 58.835C190.187 58.835 188.684 58.8533 187.29 58.89C185.897 58.89 184.76 58.9267 183.88 59V57.9C185.75 57.8267 186.942 57.515 187.455 56.965C187.969 56.3783 187.859 55.15 187.125 53.28L177.445 27.155L178.435 25.945L169.635 48.77C168.939 50.6033 168.517 52.1067 168.37 53.28C168.224 54.4533 168.315 55.37 168.645 56.03C168.975 56.69 169.525 57.1667 170.295 57.46C171.065 57.7167 172.019 57.8633 173.155 57.9V59C171.982 58.9267 170.845 58.89 169.745 58.89C168.645 58.8533 167.545 58.835 166.445 58.835C165.639 58.835 164.869 58.8533 164.135 58.89C163.439 58.89 162.815 58.9267 162.265 59V57.9C163.072 57.7167 163.86 57.24 164.63 56.47C165.437 55.7 166.207 54.3617 166.94 52.455L179.535 19.895C179.975 19.9317 180.452 19.95 180.965 19.95C181.479 19.95 181.955 19.9317 182.395 19.895ZM187.18 43.16V44.26H170.79L171.34 43.16H187.18ZM203.776 20.06C204.693 20.0967 205.866 20.1333 207.296 20.17C208.726 20.2067 210.156 20.225 211.586 20.225C213.383 20.225 215.088 20.2067 216.701 20.17C218.315 20.1333 219.451 20.115 220.111 20.115C223.411 20.115 226.125 20.5183 228.251 21.325C230.415 22.095 232.028 23.195 233.091 24.625C234.155 26.055 234.686 27.7417 234.686 29.685C234.686 30.895 234.448 32.1417 233.971 33.425C233.495 34.6717 232.67 35.8267 231.496 36.89C230.323 37.9533 228.71 38.8333 226.656 39.53C224.64 40.19 222.055 40.52 218.901 40.52H213.621V39.42H218.351C220.661 39.42 222.421 39.0167 223.631 38.21C224.878 37.3667 225.703 36.2667 226.106 34.91C226.546 33.5167 226.766 31.9767 226.766 30.29C226.766 27.3933 226.198 25.1567 225.061 23.58C223.925 21.9667 221.963 21.16 219.176 21.16C217.673 21.16 216.683 21.4717 216.206 22.095C215.766 22.7183 215.546 23.9833 215.546 25.89V53.17C215.546 54.49 215.656 55.48 215.876 56.14C216.096 56.8 216.5 57.24 217.086 57.46C217.71 57.68 218.608 57.8267 219.781 57.9V59C218.865 58.9267 217.691 58.89 216.261 58.89C214.831 58.8533 213.383 58.835 211.916 58.835C210.266 58.835 208.726 58.8533 207.296 58.89C205.866 58.89 204.693 58.9267 203.776 59V57.9C204.986 57.8267 205.885 57.68 206.471 57.46C207.095 57.24 207.498 56.8 207.681 56.14C207.901 55.48 208.011 54.49 208.011 53.17V25.89C208.011 24.5333 207.901 23.5433 207.681 22.92C207.498 22.26 207.095 21.82 206.471 21.6C205.885 21.3433 204.986 21.1967 203.776 21.16V20.06ZM213.621 39.585C215.345 39.6583 216.775 39.75 217.911 39.86C219.085 39.9333 220.075 40.0067 220.881 40.08C221.725 40.1533 222.476 40.245 223.136 40.355C226.18 40.6483 228.416 41.3633 229.846 42.5C231.313 43.6 232.285 45.2867 232.761 47.56L234.026 53.225C234.356 54.7283 234.705 55.81 235.071 56.47C235.475 57.0933 236.043 57.3867 236.776 57.35C237.29 57.35 237.73 57.2217 238.096 56.965C238.463 56.6717 238.83 56.2867 239.196 55.81L239.966 56.47C239.05 57.6067 238.078 58.45 237.051 59C236.025 59.5133 234.723 59.77 233.146 59.77C231.386 59.77 229.901 59.3667 228.691 58.56C227.481 57.7167 226.656 56.14 226.216 53.83L225.171 48.33C224.878 46.79 224.53 45.4333 224.126 44.26C223.76 43.0867 223.246 42.17 222.586 41.51C221.926 40.85 220.955 40.52 219.671 40.52H213.731L213.621 39.585ZM273.613 20.06C273.466 21.6367 273.356 23.1583 273.283 24.625C273.246 26.0917 273.228 27.21 273.228 27.98C273.228 28.8233 273.246 29.6117 273.283 30.345C273.32 31.0783 273.356 31.72 273.393 32.27H272.128C271.725 29.52 271.175 27.3567 270.478 25.78C269.781 24.1667 268.846 23.03 267.673 22.37C266.5 21.6733 264.941 21.325 262.998 21.325H260.633C259.533 21.325 258.69 21.4167 258.103 21.6C257.516 21.7833 257.113 22.1683 256.893 22.755C256.71 23.3417 256.618 24.24 256.618 25.45V52.95C256.618 54.3433 256.765 55.3883 257.058 56.085C257.351 56.7817 257.92 57.24 258.763 57.46C259.606 57.68 260.816 57.8083 262.393 57.845V59C261.33 58.9267 259.955 58.89 258.268 58.89C256.581 58.8533 254.84 58.835 253.043 58.835C251.503 58.835 250.018 58.8533 248.588 58.89C247.158 58.89 245.911 58.9267 244.848 59V57.9C246.058 57.8267 246.956 57.68 247.543 57.46C248.166 57.24 248.57 56.8 248.753 56.14C248.973 55.48 249.083 54.49 249.083 53.17V25.89C249.083 24.5333 248.973 23.5433 248.753 22.92C248.57 22.26 248.166 21.82 247.543 21.6C246.956 21.3433 246.058 21.1967 244.848 21.16V20.06C246.315 20.0967 247.855 20.1333 249.468 20.17C251.118 20.17 252.731 20.1883 254.308 20.225C255.921 20.225 257.406 20.225 258.763 20.225C260.156 20.225 261.275 20.225 262.118 20.225C263.805 20.225 265.711 20.225 267.838 20.225C270.001 20.1883 271.926 20.1333 273.613 20.06ZM265.308 39.2C265.308 39.2 265.308 39.3833 265.308 39.75C265.308 40.1167 265.308 40.3 265.308 40.3H254.968C254.968 40.3 254.968 40.1167 254.968 39.75C254.968 39.3833 254.968 39.2 254.968 39.2H265.308ZM266.573 31.94C266.426 34.03 266.353 35.625 266.353 36.725C266.39 37.825 266.408 38.8333 266.408 39.75C266.408 40.6667 266.426 41.675 266.463 42.775C266.5 43.875 266.591 45.47 266.738 47.56H265.473C265.326 46.3133 265.051 45.14 264.648 44.04C264.245 42.9033 263.621 42.005 262.778 41.345C261.971 40.6483 260.798 40.3 259.258 40.3V39.2C260.395 39.2 261.33 38.9617 262.063 38.485C262.796 38.0083 263.365 37.4033 263.768 36.67C264.208 35.9 264.538 35.1117 264.758 34.305C265.015 33.4617 265.198 32.6733 265.308 31.94H266.573ZM315.466 20.06V21.16C314.292 21.27 313.394 21.545 312.771 21.985C312.184 22.3883 311.781 23.0483 311.561 23.965C311.341 24.845 311.231 26.11 311.231 27.76V42.995C311.231 45.4517 311.066 47.6517 310.736 49.595C310.442 51.5383 309.856 53.225 308.976 54.655C308.059 56.195 306.684 57.4417 304.851 58.395C303.054 59.3117 300.854 59.77 298.251 59.77C296.491 59.77 294.749 59.5683 293.026 59.165C291.339 58.7617 289.854 58.01 288.571 56.91C287.434 55.9567 286.536 54.875 285.876 53.665C285.252 52.455 284.831 51.0067 284.611 49.32C284.391 47.5967 284.281 45.5433 284.281 43.16V25.89C284.281 24.5333 284.171 23.5433 283.951 22.92C283.767 22.26 283.364 21.82 282.741 21.6C282.154 21.3433 281.256 21.1967 280.046 21.16V20.06C280.962 20.0967 282.136 20.1333 283.566 20.17C284.996 20.2067 286.536 20.225 288.186 20.225C289.689 20.225 291.174 20.2067 292.641 20.17C294.107 20.1333 295.317 20.0967 296.271 20.06V21.16C295.024 21.1967 294.071 21.3433 293.411 21.6C292.787 21.82 292.366 22.26 292.146 22.92C291.926 23.5433 291.816 24.5333 291.816 25.89V45.8C291.816 47.6333 291.926 49.3017 292.146 50.805C292.402 52.2717 292.806 53.5367 293.356 54.6C293.942 55.6633 294.749 56.47 295.776 57.02C296.839 57.57 298.177 57.845 299.791 57.845C302.467 57.845 304.539 57.24 306.006 56.03C307.472 54.82 308.499 53.1333 309.086 50.97C309.672 48.8067 309.966 46.35 309.966 43.6V28.2C309.966 26.4033 309.837 25.0283 309.581 24.075C309.324 23.1217 308.811 22.425 308.041 21.985C307.307 21.545 306.207 21.27 304.741 21.16V20.06C305.437 20.0967 306.336 20.1333 307.436 20.17C308.572 20.2067 309.617 20.225 310.571 20.225C311.487 20.225 312.386 20.2067 313.266 20.17C314.182 20.1333 314.916 20.0967 315.466 20.06ZM368.406 20.06V21.16C367.233 21.1967 366.334 21.3433 365.711 21.6C365.088 21.82 364.666 22.26 364.446 22.92C364.263 23.5433 364.171 24.5333 364.171 25.89V53.17C364.171 54.49 364.281 55.48 364.501 56.14C364.721 56.8 365.124 57.24 365.711 57.46C366.334 57.68 367.233 57.8267 368.406 57.9V59C367.453 58.9267 366.243 58.89 364.776 58.89C363.309 58.8533 361.824 58.835 360.321 58.835C358.671 58.835 357.113 58.8533 355.646 58.89C354.216 58.89 353.061 58.9267 352.181 59V57.9C353.428 57.8267 354.363 57.68 354.986 57.46C355.646 57.24 356.086 56.8 356.306 56.14C356.526 55.48 356.636 54.49 356.636 53.17V23.25L357.021 23.305L343.381 59.165H342.501L327.981 23.58V50.86C327.981 52.62 328.091 53.995 328.311 54.985C328.531 55.9383 329.008 56.635 329.741 57.075C330.511 57.4783 331.666 57.7533 333.206 57.9V59C332.509 58.9267 331.611 58.89 330.511 58.89C329.411 58.8533 328.366 58.835 327.376 58.835C326.496 58.835 325.598 58.8533 324.681 58.89C323.801 58.89 323.068 58.9267 322.481 59V57.9C323.691 57.7533 324.589 57.4783 325.176 57.075C325.799 56.6717 326.203 56.0117 326.386 55.095C326.606 54.1783 326.716 52.9133 326.716 51.3V25.89C326.716 24.5333 326.606 23.5433 326.386 22.92C326.203 22.26 325.799 21.82 325.176 21.6C324.589 21.3433 323.691 21.1967 322.481 21.16V20.06C323.068 20.0967 323.801 20.1333 324.681 20.17C325.598 20.2067 326.496 20.225 327.376 20.225C328.733 20.225 330.053 20.2067 331.336 20.17C332.619 20.1333 333.756 20.0967 334.746 20.06L346.571 49.595L345.361 50.585L356.856 20.225C357.406 20.225 357.974 20.225 358.561 20.225C359.184 20.225 359.771 20.225 360.321 20.225C361.824 20.225 363.309 20.2067 364.776 20.17C366.243 20.1333 367.453 20.0967 368.406 20.06ZM389.371 19.4C391.424 19.4 393.001 19.62 394.101 20.06C395.201 20.5 396.154 20.9767 396.961 21.49C397.401 21.7467 397.749 21.9483 398.006 22.095C398.299 22.205 398.574 22.26 398.831 22.26C399.197 22.26 399.454 22.0583 399.601 21.655C399.784 21.2517 399.931 20.6467 400.041 19.84H401.306C401.269 20.5367 401.214 21.3433 401.141 22.26C401.104 23.1767 401.067 24.405 401.031 25.945C401.031 27.4483 401.031 29.4467 401.031 31.94H399.766C399.656 30.07 399.234 28.2733 398.501 26.55C397.804 24.8267 396.796 23.415 395.476 22.315C394.192 21.1783 392.542 20.61 390.526 20.61C388.729 20.61 387.226 21.1417 386.016 22.205C384.842 23.2683 384.256 24.6983 384.256 26.495C384.256 28.035 384.641 29.3367 385.411 30.4C386.181 31.4267 387.262 32.435 388.656 33.425C390.086 34.3783 391.772 35.4783 393.716 36.725C395.512 37.8983 397.126 39.0717 398.556 40.245C399.986 41.3817 401.104 42.6467 401.911 44.04C402.754 45.4333 403.176 47.1383 403.176 49.155C403.176 51.5383 402.589 53.5183 401.416 55.095C400.242 56.6717 398.666 57.845 396.686 58.615C394.706 59.385 392.542 59.77 390.196 59.77C388.032 59.77 386.309 59.55 385.026 59.11C383.779 58.67 382.697 58.2117 381.781 57.735C380.974 57.2217 380.351 56.965 379.911 56.965C379.544 56.965 379.269 57.1667 379.086 57.57C378.939 57.9733 378.811 58.5783 378.701 59.385H377.436C377.509 58.5417 377.546 57.5517 377.546 56.415C377.582 55.2783 377.601 53.8117 377.601 52.015C377.637 50.1817 377.656 47.8717 377.656 45.085H378.921C379.067 47.4317 379.471 49.6317 380.131 51.685C380.827 53.7017 381.872 55.3333 383.266 56.58C384.696 57.8267 386.584 58.45 388.931 58.45C390.214 58.45 391.369 58.23 392.396 57.79C393.459 57.3133 394.302 56.5983 394.926 55.645C395.549 54.655 395.861 53.4083 395.861 51.905C395.861 50.4017 395.512 49.0817 394.816 47.945C394.119 46.8083 393.147 45.745 391.901 44.755C390.654 43.765 389.187 42.7567 387.501 41.73C385.777 40.63 384.164 39.5117 382.661 38.375C381.157 37.2383 379.947 35.955 379.031 34.525C378.151 33.0583 377.711 31.2983 377.711 29.245C377.711 26.9717 378.261 25.12 379.361 23.69C380.461 22.2233 381.891 21.1417 383.651 20.445C385.447 19.7483 387.354 19.4 389.371 19.4Z" fill="black"/>
<path d="M105.466 109V88.6364H112.347C113.944 88.6364 115.25 88.9247 116.264 89.5014C117.285 90.0715 118.041 90.8438 118.531 91.8182C119.022 92.7926 119.267 93.8797 119.267 95.0795C119.267 96.2794 119.022 97.3698 118.531 98.3509C118.047 99.3319 117.298 100.114 116.284 100.697C115.27 101.274 113.971 101.562 112.386 101.562H107.455V99.375H112.307C113.401 99.375 114.279 99.1861 114.942 98.8082C115.605 98.4304 116.085 97.92 116.384 97.277C116.688 96.6274 116.841 95.8949 116.841 95.0795C116.841 94.2642 116.688 93.535 116.384 92.892C116.085 92.2491 115.601 91.7453 114.932 91.3807C114.262 91.0095 113.374 90.8239 112.267 90.8239H107.932V109H105.466ZM134.596 109H132.011L139.488 88.6364H142.034L149.511 109H146.926L140.841 91.858H140.682L134.596 109ZM135.551 101.045H145.971V103.233H135.551V101.045ZM165.283 109V88.6364H172.164C173.755 88.6364 175.061 88.9081 176.081 89.4517C177.102 89.9886 177.858 90.7277 178.348 91.669C178.839 92.6103 179.084 93.6809 179.084 94.8807C179.084 96.0805 178.839 97.1444 178.348 98.0724C177.858 99.0005 177.106 99.7296 176.091 100.26C175.077 100.784 173.781 101.045 172.204 101.045H166.635V98.8182H172.124C173.211 98.8182 174.086 98.6591 174.749 98.3409C175.419 98.0227 175.902 97.572 176.201 96.9886C176.506 96.3987 176.658 95.696 176.658 94.8807C176.658 94.0653 176.506 93.3527 176.201 92.7429C175.896 92.133 175.409 91.6624 174.739 91.331C174.07 90.9929 173.185 90.8239 172.084 90.8239H167.749V109H165.283ZM174.868 99.8523L179.88 109H177.016L172.084 99.8523H174.868ZM195.793 109V88.6364H208.003V90.8239H198.259V97.7045H207.089V99.892H198.259V109H195.793ZM238.19 88.6364H240.656V102.119C240.656 103.511 240.328 104.754 239.672 105.848C239.022 106.935 238.104 107.794 236.918 108.423C235.731 109.046 234.339 109.358 232.742 109.358C231.144 109.358 229.752 109.046 228.565 108.423C227.379 107.794 226.458 106.935 225.801 105.848C225.152 104.754 224.827 103.511 224.827 102.119V88.6364H227.293V101.92C227.293 102.915 227.512 103.8 227.949 104.575C228.387 105.344 229.01 105.951 229.818 106.395C230.634 106.832 231.608 107.051 232.742 107.051C233.875 107.051 234.85 106.832 235.665 106.395C236.48 105.951 237.103 105.344 237.534 104.575C237.972 103.8 238.19 102.915 238.19 101.92V88.6364ZM258.181 88.6364H261.124L268.044 105.54H268.283L275.203 88.6364H278.147V109H275.84V93.5284H275.641L269.277 109H267.05L260.686 93.5284H260.488V109H258.181V88.6364ZM306.827 93.7273C306.708 92.7197 306.224 91.9375 305.376 91.3807C304.527 90.8239 303.486 90.5455 302.253 90.5455C301.352 90.5455 300.563 90.6913 299.887 90.983C299.217 91.2746 298.694 91.6757 298.316 92.1861C297.945 92.6965 297.759 93.2765 297.759 93.9261C297.759 94.4697 297.888 94.937 298.147 95.3281C298.412 95.7126 298.75 96.0341 299.161 96.2926C299.572 96.5445 300.003 96.7533 300.454 96.919C300.904 97.0781 301.319 97.2074 301.697 97.3068L303.765 97.8636C304.295 98.0028 304.885 98.1951 305.535 98.4403C306.191 98.6856 306.817 99.0204 307.414 99.4446C308.017 99.8622 308.514 100.399 308.905 101.055C309.297 101.712 309.492 102.517 309.492 103.472C309.492 104.572 309.204 105.566 308.627 106.455C308.057 107.343 307.222 108.049 306.121 108.572C305.028 109.096 303.698 109.358 302.134 109.358C300.676 109.358 299.413 109.123 298.346 108.652C297.285 108.181 296.45 107.525 295.84 106.683C295.237 105.841 294.895 104.864 294.816 103.75H297.361C297.428 104.519 297.686 105.155 298.137 105.659C298.594 106.156 299.171 106.527 299.867 106.773C300.57 107.011 301.325 107.131 302.134 107.131C303.075 107.131 303.921 106.978 304.67 106.673C305.419 106.362 306.012 105.931 306.449 105.381C306.887 104.824 307.106 104.174 307.106 103.432C307.106 102.756 306.917 102.205 306.539 101.781C306.161 101.357 305.664 101.012 305.047 100.747C304.431 100.482 303.765 100.25 303.049 100.051L300.543 99.3352C298.952 98.8778 297.693 98.2249 296.765 97.3764C295.837 96.5279 295.373 95.4176 295.373 94.0455C295.373 92.9053 295.681 91.911 296.297 91.0625C296.921 90.2074 297.756 89.5445 298.803 89.0739C299.857 88.5966 301.034 88.358 302.333 88.358C303.645 88.358 304.812 88.5933 305.833 89.0639C306.854 89.5279 307.663 90.1643 308.259 90.973C308.862 91.7817 309.18 92.6998 309.214 93.7273H306.827Z" fill="black"/>
</svg>
